<?xml version="1.0" encoding="UTF-8" standalone="no"?>
<!-- Created with Inkscape (http://www.inkscape.org/) -->

<svg
   xmlns:dc="http://purl.org/dc/elements/1.1/"
   xmlns:cc="http://creativecommons.org/ns#"
   xmlns:rdf="http://www.w3.org/1999/02/22-rdf-syntax-ns#"
   xmlns:svg="http://www.w3.org/2000/svg"
   xmlns="http://www.w3.org/2000/svg"
   xmlns:sodipodi="http://sodipodi.sourceforge.net/DTD/sodipodi-0.dtd"
   xmlns:inkscape="http://www.inkscape.org/namespaces/inkscape"
   width="210mm"
   height="297mm"
   viewBox="0 0 210 297"
   version="1.1"
   id="svg8"
   inkscape:version="0.92.2 (5c3e80d, 2017-08-06)"
   sodipodi:docname="buildings.svg">
  <defs
     id="defs2" />
  <sodipodi:namedview
     id="base"
     pagecolor="#ffffff"
     bordercolor="#666666"
     borderopacity="1.0"
     inkscape:pageopacity="0.0"
     inkscape:pageshadow="2"
     inkscape:zoom="0.7"
     inkscape:cx="28.256948"
     inkscape:cy="584.03788"
     inkscape:document-units="mm"
     inkscape:current-layer="layer1"
     showgrid="false"
     inkscape:window-width="1920"
     inkscape:window-height="1001"
     inkscape:window-x="-9"
     inkscape:window-y="-9"
     inkscape:window-maximized="1" />
  <metadata
     id="metadata5">
    <rdf:RDF>
      <cc:Work
         rdf:about="">
        <dc:format>image/svg+xml</dc:format>
        <dc:type
           rdf:resource="http://purl.org/dc/dcmitype/StillImage" />
        <dc:title></dc:title>
      </cc:Work>
    </rdf:RDF>
  </metadata>
  <g
     inkscape:label="Layer 1"
     inkscape:groupmode="layer"
     id="layer1">
    <rect
       style="opacity:0.98000004;fill:#808080;fill-opacity:1;stroke:none;stroke-width:2.42250609;stroke-miterlimit:4;stroke-dasharray:none;stroke-opacity:0.96078431"
       id="rect815"
       width="45.834141"
       height="297.6734"
       x="0"
       y="-0.20371455"
       inkscape:export-xdpi="25.4"
       inkscape:export-ydpi="25.4" />
    <rect
       style="opacity:0.98000004;fill:#ffd42a;fill-opacity:1;stroke:none;stroke-width:3;stroke-miterlimit:4;stroke-dasharray:none;stroke-opacity:0.96078431"
       id="rect821"
       width="24.054258"
       height="47.573971"
       x="0"
       y="22.246925"
       inkscape:export-xdpi="25.4"
       inkscape:export-ydpi="25.4" />
    <rect
       style="opacity:0.98000004;fill:#ffffff;fill-opacity:1;stroke:none;stroke-width:3;stroke-miterlimit:4;stroke-dasharray:none;stroke-opacity:0.96078431"
       id="rect821-4"
       width="24.054258"
       height="47.573971"
       x="0.26726869"
       y="120.86938"
       inkscape:export-xdpi="25.4"
       inkscape:export-ydpi="25.4" />
    <rect
       style="opacity:0.98000004;fill:#ffd42a;fill-opacity:1;stroke:none;stroke-width:3;stroke-miterlimit:4;stroke-dasharray:none;stroke-opacity:0.96078431"
       id="rect821-5"
       width="24.054258"
       height="47.573971"
       x="-0.26728114"
       y="213.34465"
       inkscape:export-xdpi="25.4"
       inkscape:export-ydpi="25.4" />
    <path
       style="fill:none;stroke:#000000;stroke-width:0.26458332px;stroke-linecap:butt;stroke-linejoin:miter;stroke-opacity:1"
       d="m 0.26726869,120.86938 c 0.38416337,11.21161 1.53809431,11.62508 3.83689621,22.48861 1.4937989,7.0593 12.2309041,23.66986 20.2173621,25.08543"
       id="path850"
       inkscape:connector-curvature="0"
       sodipodi:nodetypes="csc"
       inkscape:export-xdpi="25.4"
       inkscape:export-ydpi="25.4" />
    <path
       style="opacity:0.98000004;fill:#e3dedb;fill-opacity:1;stroke:none;stroke-width:16.19797516;stroke-miterlimit:4;stroke-dasharray:none;stroke-opacity:0.96078431"
       d="M 83.542663,632.32736 C 62.994451,622.12657 32.963924,584.45425 20.857546,553.69092 14.806981,538.31593 4.1842976,489.56909 3.2362539,472.8279 L 2.3978904,458.02351 H 46.898848 91.399806 v 88.57143 c 0,48.71429 -0.482143,88.57093 -1.071429,88.5703 -0.589286,-6.1e-4 -3.642857,-1.27765 -6.785714,-2.83788 z"
       id="path867"
       inkscape:connector-curvature="0"
       transform="scale(0.26458333)"
       inkscape:export-xdpi="25.4"
       inkscape:export-ydpi="25.4" />
    <path
       style="opacity:0.98000004;fill:#fcd22b;fill-opacity:1;stroke:none;stroke-width:16.19797516;stroke-miterlimit:4;stroke-dasharray:none;stroke-opacity:0.96078431"
       d="m 1.5943514,561.2378 c 0.1070002,-41.44643 0.4672035,-73.75 0.8004518,-71.78571 0.3332482,1.96428 3.7547418,16.87193 7.6033188,33.12809 7.574749,31.99531 11.802231,42.39177 26.341934,64.78159 13.666622,21.04536 32.673168,40.58502 45.763677,47.0473 3.898983,1.92479 0.367763,2.12382 -38.203927,2.15334 l -42.5000004,0.0325 z"
       id="path869"
       inkscape:connector-curvature="0"
       transform="scale(0.26458333)"
       inkscape:export-xdpi="25.4"
       inkscape:export-ydpi="25.4" />
    <rect
       style="opacity:0.98000004;fill:#808080;fill-opacity:1;stroke:none;stroke-width:2.36181331;stroke-miterlimit:4;stroke-dasharray:none;stroke-opacity:0.96078431"
       id="rect815-9"
       width="43.566284"
       height="297.6734"
       x="-211.58253"
       y="-0.38134435"
       transform="scale(-1,1)"
       inkscape:export-xdpi="25.4"
       inkscape:export-ydpi="25.4" />
    <rect
       style="opacity:0.98000004;fill:#ffd42a;fill-opacity:1;stroke:none;stroke-width:3;stroke-miterlimit:4;stroke-dasharray:none;stroke-opacity:0.96078431"
       id="rect821-1"
       width="24.054258"
       height="47.573971"
       x="-211.58253"
       y="22.069298"
       transform="scale(-1,1)"
       inkscape:export-xdpi="25.4"
       inkscape:export-ydpi="25.4" />
    <rect
       style="opacity:0.98000004;fill:#ffffff;fill-opacity:1;stroke:none;stroke-width:3;stroke-miterlimit:4;stroke-dasharray:none;stroke-opacity:0.96078431"
       id="rect821-4-8"
       width="24.054258"
       height="47.573971"
       x="-211.31528"
       y="120.69174"
       transform="scale(-1,1)"
       inkscape:export-xdpi="25.4"
       inkscape:export-ydpi="25.4" />
    <rect
       style="opacity:0.98000004;fill:#ffd42a;fill-opacity:1;stroke:none;stroke-width:3;stroke-miterlimit:4;stroke-dasharray:none;stroke-opacity:0.96078431"
       id="rect821-5-9"
       width="24.054258"
       height="47.573971"
       x="-211.84982"
       y="213.16704"
       transform="scale(-1,1)"
       inkscape:export-xdpi="25.4"
       inkscape:export-ydpi="25.4" />
    <path
       style="fill:none;stroke:#000000;stroke-width:0.26458332px;stroke-linecap:butt;stroke-linejoin:miter;stroke-opacity:1"
       d="m 211.31527,120.69176 c -0.38416,11.21161 -1.53809,11.62508 -3.83689,22.4886 -1.4938,7.0593 -12.23091,23.66986 -20.21736,25.08543"
       id="path850-4"
       inkscape:connector-curvature="0"
       sodipodi:nodetypes="csc"
       inkscape:export-xdpi="25.4"
       inkscape:export-ydpi="25.4" />
    <path
       style="opacity:0.98000004;fill:#e3dedb;fill-opacity:1;stroke:none;stroke-width:4.28571415;stroke-miterlimit:4;stroke-dasharray:none;stroke-opacity:0.96078431"
       d="m 189.47855,167.12564 c 5.43671,-2.69896 13.38229,-12.66642 16.58543,-20.80589 1.60088,-4.06795 4.41147,-16.96555 4.6623,-21.39499 l 0.22182,-3.917 h -11.77421 -11.77421 v 23.43452 c 0,12.88898 0.12756,23.43439 0.28348,23.43422 0.15591,-1.6e-4 0.96384,-0.33805 1.79539,-0.75086 z"
       id="path867-2"
       inkscape:connector-curvature="0"
       inkscape:export-xdpi="25.4"
       inkscape:export-ydpi="25.4" />
    <path
       style="opacity:0.98000004;fill:#fcd22b;fill-opacity:1;stroke:none;stroke-width:4.28571415;stroke-miterlimit:4;stroke-dasharray:none;stroke-opacity:0.96078431"
       d="m 211.1607,148.31653 c -0.0283,-10.96602 -0.12361,-19.51301 -0.21178,-18.99329 -0.0882,0.51971 -0.99344,4.46403 -2.01171,8.76514 -2.00416,8.46542 -3.12268,11.21615 -6.96964,17.14012 -3.61596,5.56825 -8.64478,10.73812 -12.10831,12.44793 -1.0316,0.50927 -0.0973,0.56193 10.10813,0.56974 l 11.24479,0.009 z"
       id="path869-5"
       inkscape:connector-curvature="0"
       inkscape:export-xdpi="25.4"
       inkscape:export-ydpi="25.4" />
  </g>
</svg>
