<?xml version="1.0" encoding="UTF-8" standalone="no"?>
<!-- Created with Inkscape (http://www.inkscape.org/) -->

<svg
   xmlns:dc="http://purl.org/dc/elements/1.1/"
   xmlns:cc="http://creativecommons.org/ns#"
   xmlns:rdf="http://www.w3.org/1999/02/22-rdf-syntax-ns#"
   xmlns:svg="http://www.w3.org/2000/svg"
   xmlns="http://www.w3.org/2000/svg"
   xmlns:sodipodi="http://sodipodi.sourceforge.net/DTD/sodipodi-0.dtd"
   xmlns:inkscape="http://www.inkscape.org/namespaces/inkscape"
   width="210mm"
   height="297mm"
   viewBox="0 0 210 297"
   version="1.1"
   id="svg8"
   inkscape:export-filename="D:\picture\game\black_cat.png"
   inkscape:export-xdpi="86.689743"
   inkscape:export-ydpi="86.689743"
   inkscape:version="0.92.2 (5c3e80d, 2017-08-06)"
   sodipodi:docname="character_cat.svg">
  <defs
     id="defs2" />
  <sodipodi:namedview
     id="base"
     pagecolor="#ffffff"
     bordercolor="#666666"
     borderopacity="1.0"
     inkscape:pageopacity="0.0"
     inkscape:pageshadow="2"
     inkscape:zoom="1.979899"
     inkscape:cx="298.83102"
     inkscape:cy="612.43014"
     inkscape:document-units="mm"
     inkscape:current-layer="layer3"
     showgrid="false"
     inkscape:window-width="1920"
     inkscape:window-height="1001"
     inkscape:window-x="-9"
     inkscape:window-y="-9"
     inkscape:window-maximized="1" />
  <metadata
     id="metadata5">
    <rdf:RDF>
      <cc:Work
         rdf:about="">
        <dc:format>image/svg+xml</dc:format>
        <dc:type
           rdf:resource="http://purl.org/dc/dcmitype/StillImage" />
        <dc:title></dc:title>
      </cc:Work>
    </rdf:RDF>
  </metadata>
  <g
     inkscape:groupmode="layer"
     id="layer3"
     inkscape:label="Layer 3">
    <path
       style="fill:none;stroke:#000000;stroke-width:5;stroke-linecap:butt;stroke-linejoin:miter;stroke-miterlimit:4;stroke-dasharray:none;stroke-opacity:1"
       d="m 89.580357,136.73809 c -9.732888,7.08705 -9.732888,7.08705 -9.732888,7.08705 z"
       id="path5136"
       inkscape:connector-curvature="0" />
    <path
       style="fill:#000000;fill-opacity:0.98913036;stroke:#000000;stroke-width:0.26458332px;stroke-linecap:butt;stroke-linejoin:miter;stroke-opacity:1"
       d="m 93.41547,144.83771 c -9.827381,21.92262 -9.827381,21.92262 -9.827381,21.92262 l 11.339287,-0.18899 z"
       id="path5142"
       inkscape:connector-curvature="0" />
    <path
       style="fill:#000000;fill-opacity:0.98913036;stroke:#000000;stroke-width:0.26458332px;stroke-linecap:butt;stroke-linejoin:miter;stroke-opacity:1"
       d="m 102.95265,150.73385 c -0.37797,21.54465 -0.37797,21.54465 -0.37797,21.54465 l 11.90625,0.37797 z"
       id="path5144"
       inkscape:connector-curvature="0" />
    <path
       style="fill:#800000;fill-opacity:0.98913036;stroke:#000000;stroke-width:0.26458332px;stroke-linecap:butt;stroke-linejoin:miter;stroke-opacity:1"
       d="m 85.56817,161.89918 c 9.220798,-0.26727 9.354433,-0.13364 9.354433,-0.13364 l 0.0048,4.8058 -11.339285,0.18899 z"
       id="path5156"
       inkscape:connector-curvature="0" />
    <path
       style="fill:#800000;stroke:#000000;stroke-width:0.26458332px;stroke-linecap:butt;stroke-linejoin:miter;stroke-opacity:1"
       d="m 102.47887,168.25158 c 10.0226,0.13363 10.15624,-0.13364 10.15624,-0.13364 l 1.84582,4.53853 -11.90625,-0.37797 z"
       id="path5158"
       inkscape:connector-curvature="0" />
  </g>
  <g
     inkscape:label="Layer 1"
     inkscape:groupmode="layer"
     id="layer1">
    <circle
       style="fill:#ffffff;fill-opacity:1;stroke:#000000;stroke-width:0.26458332;stroke-opacity:0.99502486"
       id="path16"
       cx="97.328873"
       cy="100.2634"
       r="23.245535" />
    <path
       style="fill:#000000;fill-opacity:1;stroke:#000000;stroke-width:1.01015258;stroke-opacity:0.99502486"
       d="m 354.18223,464.77462 c -32.90021,-5.55191 -59.63321,-29.00741 -69.41372,-60.90353 -12.52092,-40.83308 7.93129,-86.15199 46.84219,-103.79504 27.34762,-12.4 59.48528,-9.90473 84.22039,6.53914 8.25613,5.48867 21.46717,19.16072 26.23637,27.15194 13.85801,23.22026 16.267,52.99485 6.27436,77.54962 -4.38501,10.77524 -8.82284,17.5579 -17.56822,26.85083 -13.03485,13.85096 -27.46042,21.99134 -45.60883,25.73716 -9.34829,1.92949 -22.51304,2.2991 -30.98254,0.86988 z"
       id="path22"
       inkscape:connector-curvature="0"
       transform="scale(0.26458333)" />
    <ellipse
       style="fill:#ff0000;fill-opacity:0;stroke:#ff0000;stroke-width:1.765;stroke-opacity:1;stroke-miterlimit:4;stroke-dasharray:none"
       id="path53"
       cx="104.36875"
       cy="99.487823"
       rx="7.8844509"
       ry="5.0781207" />
    <ellipse
       style="fill:#ff0000;fill-opacity:0.98913044;stroke:#ff0000;stroke-width:2;stroke-miterlimit:4;stroke-dasharray:none;stroke-opacity:1"
       id="path904"
       cx="104.63602"
       cy="99.755089"
       rx="2.0045214"
       ry="4.2763124" />
    <circle
       style="fill:#080000;fill-opacity:0.98913042;stroke:#040000;stroke-width:4;stroke-miterlimit:4;stroke-dasharray:none;stroke-opacity:1"
       id="path928"
       cx="119.8788"
       cy="129.36743"
       r="3.3000188" />
    <circle
       style="fill:#080000;fill-opacity:0.98913042;stroke:#040000;stroke-width:4;stroke-miterlimit:4;stroke-dasharray:none;stroke-opacity:1"
       id="path928-9"
       cx="81.075897"
       cy="143.91963"
       r="3.3000188" />
    <path
       style="fill:#fd0000;stroke:#000000;stroke-width:0.26458332px;stroke-linecap:butt;stroke-linejoin:miter;stroke-opacity:1;fill-opacity:1"
       d="m 107.34524,63.032737 -10.20536,13.229167 7.55952,2.645833 v 0 l 8.31548,5.291667 z"
       id="path947"
       inkscape:connector-curvature="0" />
    <path
       style="fill:none;stroke:#000000;stroke-width:0.26458332px;stroke-linecap:butt;stroke-linejoin:miter;stroke-opacity:1"
       d="m 82.020832,123.50893 c 32.316958,0 32.127978,-0.18899 32.127978,-0.18899 l -15.11905,39.30952 z"
       id="path5120"
       inkscape:connector-curvature="0" />
    <path
       style="opacity:0.98000004;fill:#000000;fill-opacity:1;stroke:#030303;stroke-width:2.69966269;stroke-miterlimit:4;stroke-dasharray:none;stroke-opacity:1"
       d="m 342.79711,540.14718 c -17.2315,-39.65871 -31.19237,-72.24437 -31.02416,-72.41258 0.69515,-0.69515 118.43379,-0.66844 118.14876,0.0268 -0.16106,0.39285 -12.72289,33.01358 -27.91517,72.49049 -15.19229,39.47692 -27.68019,71.82703 -27.75089,71.88913 -0.0707,0.0621 -14.22704,-32.33514 -31.45854,-71.99385 z"
       id="path5124"
       inkscape:connector-curvature="0"
       transform="scale(0.26458333)" />
    <path
       style="fill:none;stroke:#000000;stroke-width:5;stroke-linecap:butt;stroke-linejoin:miter;stroke-miterlimit:4;stroke-dasharray:none;stroke-opacity:1"
       d="m 117.86586,129.55564 c -11.8935,3.60814 -11.8935,3.60814 -11.8935,3.60814 z"
       id="path1997"
       inkscape:connector-curvature="0" />
  </g>
  <g
     inkscape:groupmode="layer"
     id="layer2"
     inkscape:label="Layer 2">
    <path
       style="fill:#080000;fill-opacity:0.98913042;stroke:#000000;stroke-width:0.26458332px;stroke-linecap:butt;stroke-linejoin:miter;stroke-opacity:1"
       d="M 89.202379,78.907737 C 100.16369,61.142856 97.895831,62.276783 97.895831,62.276783 l 6.803569,16.630954 z"
       id="path918"
       inkscape:connector-curvature="0" />
  </g>
</svg>
