<?xml version="1.0" encoding="UTF-8" standalone="no"?>
<!-- Created with Inkscape (http://www.inkscape.org/) -->

<svg
   xmlns:dc="http://purl.org/dc/elements/1.1/"
   xmlns:cc="http://creativecommons.org/ns#"
   xmlns:rdf="http://www.w3.org/1999/02/22-rdf-syntax-ns#"
   xmlns:svg="http://www.w3.org/2000/svg"
   xmlns="http://www.w3.org/2000/svg"
   xmlns:sodipodi="http://sodipodi.sourceforge.net/DTD/sodipodi-0.dtd"
   xmlns:inkscape="http://www.inkscape.org/namespaces/inkscape"
   width="210mm"
   height="297mm"
   viewBox="0 0 210 297"
   version="1.1"
   id="svg8"
   inkscape:export-filename="D:\picture\game\black_cat.png"
   inkscape:export-xdpi="86.689743"
   inkscape:export-ydpi="86.689743"
   inkscape:version="0.92.2 (5c3e80d, 2017-08-06)"
   sodipodi:docname="character_cat.svg">
  <defs
     id="defs2" />
  <sodipodi:namedview
     id="base"
     pagecolor="#ffffff"
     bordercolor="#666666"
     borderopacity="1.0"
     inkscape:pageopacity="0.0"
     inkscape:pageshadow="2"
     inkscape:zoom="1.979899"
     inkscape:cx="415.71858"
     inkscape:cy="679.37339"
     inkscape:document-units="mm"
     inkscape:current-layer="layer1"
     showgrid="false"
     inkscape:window-width="1920"
     inkscape:window-height="1001"
     inkscape:window-x="-9"
     inkscape:window-y="-9"
     inkscape:window-maximized="1" />
  <metadata
     id="metadata5">
    <rdf:RDF>
      <cc:Work
         rdf:about="">
        <dc:format>image/svg+xml</dc:format>
        <dc:type
           rdf:resource="http://purl.org/dc/dcmitype/StillImage" />
        <dc:title></dc:title>
      </cc:Work>
    </rdf:RDF>
  </metadata>
  <g
     inkscape:groupmode="layer"
     id="layer3"
     inkscape:label="Layer 3">
    <path
       style="fill:none;stroke:#000000;stroke-width:5;stroke-linecap:butt;stroke-linejoin:miter;stroke-miterlimit:4;stroke-dasharray:none;stroke-opacity:1"
       d="m 91.697025,136.73809 c -9.732888,7.08705 -9.732888,7.08705 -9.732888,7.08705 z"
       id="path5136"
       inkscape:connector-curvature="0" />
    <path
       style="fill:none;stroke:#000000;stroke-width:5;stroke-linecap:butt;stroke-linejoin:miter;stroke-miterlimit:4;stroke-dasharray:none;stroke-opacity:1"
       d="m 105.79552,135.98214 c 6.80357,4.53572 7.55952,5.48066 7.55952,5.48066 z"
       id="path5138"
       inkscape:connector-curvature="0" />
    <path
       style="fill:#000000;fill-opacity:0.98913036;stroke:#000000;stroke-width:0.26458332px;stroke-linecap:butt;stroke-linejoin:miter;stroke-opacity:1"
       d="m 97.522627,145.70163 c -9.827381,21.92262 -9.827381,21.92262 -9.827381,21.92262 l 11.339287,-0.18899 z"
       id="path5142"
       inkscape:connector-curvature="0" />
    <path
       style="fill:#000000;fill-opacity:0.98913036;stroke:#000000;stroke-width:0.26458332px;stroke-linecap:butt;stroke-linejoin:miter;stroke-opacity:1"
       d="m 102.69612,147.79389 c -0.37797,21.54465 -0.37797,21.54465 -0.37797,21.54465 l 11.90625,0.37797 z"
       id="path5144"
       inkscape:connector-curvature="0" />
    <path
       style="fill:#800000;fill-opacity:0.98913036;stroke:#000000;stroke-width:0.26458332px;stroke-linecap:butt;stroke-linejoin:miter;stroke-opacity:1"
       d="m 89.675327,162.7631 c 9.220798,-0.26727 9.354433,-0.13364 9.354433,-0.13364 l 0.0048,4.8058 -11.339285,0.18899 z"
       id="path5156"
       inkscape:connector-curvature="0" />
    <path
       style="fill:#800000;stroke:#000000;stroke-width:0.26458332px;stroke-linecap:butt;stroke-linejoin:miter;stroke-opacity:1"
       d="m 102.22234,165.31162 c 10.0226,0.13363 10.15624,-0.13364 10.15624,-0.13364 l 1.84582,4.53853 -11.90625,-0.37797 z"
       id="path5158"
       inkscape:connector-curvature="0" />
  </g>
  <g
     inkscape:label="Layer 1"
     inkscape:groupmode="layer"
     id="layer1">
    <circle
       style="fill:#ffffff;fill-opacity:1;stroke:#000000;stroke-width:0.26458332;stroke-opacity:0.99502486"
       id="path16"
       cx="99.445541"
       cy="100.2634"
       r="23.245535" />
    <path
       style="fill:#000000;fill-opacity:1;stroke:#000000;stroke-width:0.26726952;stroke-opacity:0.99502486"
       d="m 95.827382,122.97162 c -8.704848,-1.46895 -15.777954,-7.67488 -18.365714,-16.11406 -3.312826,-10.803754 2.098487,-22.794383 12.393663,-27.462439 7.235724,-3.280834 15.738819,-2.620627 22.283319,1.730147 2.18444,1.452211 5.67986,5.069607 6.94171,7.183951 3.6666,6.143693 4.30397,14.021551 1.66009,20.518341 -1.1602,2.85094 -2.33438,4.64552 -4.64826,7.10428 -3.4488,3.66473 -7.26557,5.81854 -12.06734,6.80962 -2.4734,0.51051 -5.95658,0.6083 -8.197468,0.23016 z"
       id="path22"
       inkscape:connector-curvature="0" />
    <ellipse
       style="fill:#ff0000;fill-opacity:0;stroke:#ff0000;stroke-width:1.76499999;stroke-miterlimit:4;stroke-dasharray:none;stroke-opacity:1"
       id="path53"
       cx="106.48543"
       cy="99.487823"
       rx="7.8844509"
       ry="5.0781207" />
    <ellipse
       style="fill:#ff0000;fill-opacity:0.98913042;stroke:#ff0000;stroke-width:2;stroke-miterlimit:4;stroke-dasharray:none;stroke-opacity:1"
       id="path904"
       cx="106.75268"
       cy="99.755089"
       rx="2.0045214"
       ry="4.2763124" />
    <circle
       style="fill:#080000;fill-opacity:0.98913042;stroke:#040000;stroke-width:4;stroke-miterlimit:4;stroke-dasharray:none;stroke-opacity:1"
       id="path928"
       cx="115.3567"
       cy="143.26544"
       r="3.3000188" />
    <circle
       style="fill:#080000;fill-opacity:0.98913042;stroke:#040000;stroke-width:4;stroke-miterlimit:4;stroke-dasharray:none;stroke-opacity:1"
       id="path928-9"
       cx="83.192566"
       cy="143.91963"
       r="3.3000188" />
    <path
       style="fill:#fd0000;fill-opacity:1;stroke:#000000;stroke-width:0.26458332px;stroke-linecap:butt;stroke-linejoin:miter;stroke-opacity:1"
       d="m 109.46192,63.032737 -10.205372,13.229167 7.559532,2.645833 v 0 l 8.31548,5.291667 z"
       id="path947"
       inkscape:connector-curvature="0" />
    <path
       style="fill:none;stroke:#000000;stroke-width:0.26458332px;stroke-linecap:butt;stroke-linejoin:miter;stroke-opacity:1"
       d="m 82.020832,123.50893 c 32.316958,0 32.127978,-0.18899 32.127978,-0.18899 l -15.11905,39.30952 z"
       id="path5120"
       inkscape:connector-curvature="0" />
    <path
       style="opacity:0.98000004;fill:#000000;fill-opacity:1;stroke:#030303;stroke-width:2.69966269;stroke-miterlimit:4;stroke-dasharray:none;stroke-opacity:1"
       d="m 342.79711,540.14718 c -17.2315,-39.65871 -31.19237,-72.24437 -31.02416,-72.41258 0.69515,-0.69515 118.43379,-0.66844 118.14876,0.0268 -0.16106,0.39285 -12.72289,33.01358 -27.91517,72.49049 -15.19229,39.47692 -27.68019,71.82703 -27.75089,71.88913 -0.0707,0.0621 -14.22704,-32.33514 -31.45854,-71.99385 z"
       id="path5124"
       inkscape:connector-curvature="0"
       transform="scale(0.26458333)" />
  </g>
  <g
     inkscape:groupmode="layer"
     id="layer2"
     inkscape:label="Layer 2">
    <path
       style="fill:#080000;fill-opacity:0.98913042;stroke:#000000;stroke-width:0.26458332px;stroke-linecap:butt;stroke-linejoin:miter;stroke-opacity:1"
       d="M 91.319047,78.907737 C 102.28037,61.142856 100.0125,62.276783 100.0125,62.276783 l 6.80358,16.630954 z"
       id="path918"
       inkscape:connector-curvature="0" />
  </g>
</svg>
