<?xml version="1.0" encoding="UTF-8" standalone="no"?>
<!-- Created with Inkscape (http://www.inkscape.org/) -->

<svg
   xmlns:dc="http://purl.org/dc/elements/1.1/"
   xmlns:cc="http://creativecommons.org/ns#"
   xmlns:rdf="http://www.w3.org/1999/02/22-rdf-syntax-ns#"
   xmlns:svg="http://www.w3.org/2000/svg"
   xmlns="http://www.w3.org/2000/svg"
   xmlns:sodipodi="http://sodipodi.sourceforge.net/DTD/sodipodi-0.dtd"
   xmlns:inkscape="http://www.inkscape.org/namespaces/inkscape"
   width="210mm"
   height="297mm"
   viewBox="0 0 210 297"
   version="1.1"
   id="svg8"
   sodipodi:docname="ink.svg"
   inkscape:version="0.92.2 (5c3e80d, 2017-08-06)"
   inkscape:export-filename="D:\picture\New folder\jet.png"
   inkscape:export-xdpi="96"
   inkscape:export-ydpi="96">
  <defs
     id="defs2" />
  <sodipodi:namedview
     id="base"
     pagecolor="#ffffff"
     bordercolor="#666666"
     borderopacity="1.0"
     inkscape:pageopacity="0.0"
     inkscape:pageshadow="2"
     inkscape:zoom="0.98994949"
     inkscape:cx="326.79961"
     inkscape:cy="517.53308"
     inkscape:document-units="mm"
     inkscape:current-layer="layer2"
     showgrid="false"
     inkscape:window-width="1920"
     inkscape:window-height="1001"
     inkscape:window-x="-9"
     inkscape:window-y="-9"
     inkscape:window-maximized="1" />
  <metadata
     id="metadata5">
    <rdf:RDF>
      <cc:Work
         rdf:about="">
        <dc:format>image/svg+xml</dc:format>
        <dc:type
           rdf:resource="http://purl.org/dc/dcmitype/StillImage" />
        <dc:title></dc:title>
      </cc:Work>
    </rdf:RDF>
  </metadata>
  <g
     inkscape:label="Layer 1"
     inkscape:groupmode="layer"
     id="layer1"
     style="display:inline">
    <path
       style="fill:none;stroke:#000000;stroke-width:0.26458332px;stroke-linecap:butt;stroke-linejoin:miter;stroke-opacity:1"
       d="m 76.162202,182.47321 c 14.735719,0.16302 43.102838,0.74191 43.088538,0.65612 0,0 21.19842,-0.1599 33.82431,-0.37366 12.62589,-0.21376 23.86703,1.69232 36.54894,-2.05633 2.92586,-0.40901 17.2815,-2.59842 0.29932,-7.37606 -5.0658,-0.93393 -5.7853,-0.82463 -10.39916,-3.46537 -4.40119,-2.23583 -8.60976,-5.16453 -13.69256,-5.55256 -5.8116,-0.63341 -11.79576,-0.70857 -17.55286,0.35451 -4.99758,1.3583 -10.26231,4.67721 -15.599,4.00647 -12.69557,0.44293 -36.817322,-3.51904 -36.817322,-3.51904 l -19.63202,-3.05729 0.424698,14.16583 c 0,0 -0.214724,4.86004 -0.492884,6.21738"
       id="path20"
       inkscape:connector-curvature="0"
       sodipodi:nodetypes="cczcccccccccc" />
    <path
       style="fill:#ffffff;stroke-width:0.50507629"
       d="m 375.69879,690.41283 c -30.00153,-0.53045 -61.83257,-1.10971 -70.73566,-1.28724 l -16.18742,-0.32279 0.40724,-3.60578 c 1.11437,-9.86698 1.21259,-18.87376 0.48406,-44.38892 -0.41838,-14.65256 -0.62556,-26.77614 -0.4604,-26.94129 0.16515,-0.16516 19.35253,2.67034 42.63862,6.30111 48.60133,7.57792 54.99737,8.52655 73.65306,10.92395 39.17212,5.03391 68.47298,7.31535 93.95208,7.31535 17.6011,0 21.22538,-0.75214 42.67105,-8.85542 14.81461,-5.59772 17.82543,-6.51153 24.74874,-7.51149 10.89132,-1.57306 18.62195,-1.94689 34.5496,-1.6707 33.98973,0.5894 39.66628,2.16022 72.52657,20.06955 18.61986,10.14809 21.15999,11.13509 35.78594,13.90501 19.90753,3.77018 37.9552,11.54564 37.9552,16.35221 0,3.92235 -9.43291,7.88724 -25.25382,10.6148 -3.1946,0.55076 -9.33128,1.89189 -13.63706,2.98029 -24.17478,6.11085 -43.57482,7.36635 -95.20687,6.16144 -21.05126,-0.49125 -36.08984,-0.5111 -65.91246,-0.087 -74.38953,1.05789 -114.18596,1.06874 -171.97847,0.0469 z"
       id="path286"
       inkscape:connector-curvature="0"
       transform="scale(0.26458333)" />
    <path
       style="fill:#ff0000;stroke:#000000;stroke-width:0.26458332px;stroke-linecap:butt;stroke-linejoin:miter;stroke-opacity:1"
       d="m 137.77744,178.86686 c 58.26476,0.53454 57.99749,0.53454 57.99749,0.53454 z"
       id="path321"
       inkscape:connector-curvature="0" />
    <path
       style="fill:#ff0000;stroke-width:0.50507629"
       d="m 614.72167,690.48453 c -7.0837,-0.24185 -31.28948,-0.31586 -53.79063,-0.16447 l -40.91118,0.27526 16.41498,-6.42146 c 9.02824,-3.5318 16.52862,-6.57444 16.66752,-6.76141 0.31131,-0.41907 179.09877,1.17909 179.52398,1.60474 0.26933,0.26961 -6.94884,1.82279 -12.59627,2.71043 -1.11117,0.17464 -5.08865,1.09082 -8.83884,2.03594 -26.48401,6.67447 -49.94904,8.30927 -96.46956,6.72097 z"
       id="path323"
       inkscape:connector-curvature="0"
       transform="scale(0.26458333)" />
    <path
       style="fill:none;stroke:#000000;stroke-width:0.26458332px;stroke-linecap:butt;stroke-linejoin:miter;stroke-opacity:1"
       d="m 140.15088,167.72068 c 2.00732,1.85873 4.8742,2.37066 7.4242,3.00835 2.23495,0.55891 4.74512,0.8706 7.03113,1.16094 3.96577,0.50367 7.98198,0.29755 11.97669,0.43852 4.08017,0.14399 8.10571,-0.83996 12.16865,-1.11534 0.89332,-0.0606 1.79337,0.003 2.67702,-0.17361"
       id="path369"
       inkscape:connector-curvature="0"
       sodipodi:nodetypes="cssssc" />
    <path
       style="fill:#999999;stroke:#000000;stroke-width:0.26458332px;stroke-linecap:butt;stroke-linejoin:miter;stroke-opacity:1"
       d="m 165.45907,164.14137 c 0.37798,8.12648 0.28349,8.22098 0.28349,8.22098 z"
       id="path377"
       inkscape:connector-curvature="0" />
    <path
       style="fill:#999999;stroke-width:0.35714287"
       d="m 628.63998,650.54916 -1.30743,-0.12334 -0.19776,-3.28391 c -0.2441,-4.05337 -0.94597,-22.01442 -0.94101,-24.08065 l 0.004,-1.51103 1.69643,0.19442 c 9.10206,1.04314 20.58329,4.90704 30.625,10.30657 1.57143,0.84497 7.68962,4.12958 13.59598,7.29913 5.90636,3.16954 11.02364,5.97106 11.37172,6.22558 0.5315,0.38864 -0.55943,0.53126 -6.81027,0.89032 -4.09373,0.23515 -10.49672,0.82374 -14.22886,1.30798 -14.22166,1.84523 -29.96477,3.13743 -33.80743,2.77493 z"
       id="path379"
       inkscape:connector-curvature="0"
       transform="scale(0.26458333)" />
    <path
       style="fill:#ff0000;stroke:#000000;stroke-width:0.26458332px;stroke-linecap:butt;stroke-linejoin:miter;stroke-opacity:1"
       d="m 113.18864,169.3788 31.53781,0.66817 7.61718,1.73725 -38.88772,-0.8018 z"
       id="path418"
       inkscape:connector-curvature="0" />
    <path
       style="fill:#000000;stroke:#000000;stroke-width:0.26458332px;stroke-linecap:butt;stroke-linejoin:miter;stroke-opacity:1"
       d="m 121.61384,174.44122 c 25.4189,0.18898 25.22991,0.0945 25.22991,0.0945 l -0.022,2.39576 -25.17455,-0.082 z"
       id="path420"
       inkscape:connector-curvature="0"
       sodipodi:nodetypes="ccccc" />
  </g>
  <g
     inkscape:groupmode="layer"
     id="layer2"
     inkscape:label="jet"
     style="display:inline">
    <path
       style="fill:none;stroke:#000000;stroke-width:0.26458332px;stroke-linecap:butt;stroke-linejoin:miter;stroke-opacity:1"
       d="m 69.89098,160.02437 c -0.267268,14.03164 -0.534539,17.37252 -0.534539,17.37252 L 113.055,175.526 l 0.66818,-11.09169 z"
       id="path50"
       inkscape:connector-curvature="0"
       sodipodi:nodetypes="ccccc" />
    <path
       style="fill:#ffffff;stroke-width:0.50507629"
       d="m 263.0198,667.12873 c 0.28107,-2.60119 0.91032,-21.72174 1.60751,-48.8465 l 0.32903,-12.8014 2.08568,0.2937 c 1.14712,0.16153 34.92826,3.59012 75.0692,7.61908 87.58269,8.79071 86.34796,8.66273 86.66865,8.98342 0.32795,0.32795 -2.06888,39.68511 -2.43936,40.05559 -0.25201,0.252 -40.32127,2.06048 -121.85747,5.49988 -16.38973,0.69136 -32.48973,1.40311 -35.77779,1.58167 l -5.97829,0.32465 z"
       id="path300"
       inkscape:connector-curvature="0"
       transform="scale(0.26458333)" />
    <path
       style="fill:none;stroke:#000000;stroke-width:0.26458332px;stroke-linecap:butt;stroke-linejoin:miter;stroke-opacity:1"
       d="m 76.722566,160.80996 c 1.511318,3.31093 2.136878,5.72352 3.922888,8.95096 0.833697,1.25239 2.436042,7.00187 3.647046,6.84225"
       id="path302"
       inkscape:connector-curvature="0"
       sodipodi:nodetypes="ccc" />
    <path
       style="fill:#2b0000;stroke-width:0.35714287"
       d="m 317.97804,666.7148 c -2.12326,-1.39562 -4.009,-4.9536 -8.33609,-15.72839 -1.38048,-3.4375 -4.04977,-9.30357 -5.93177,-13.03571 -1.882,-3.73214 -5.44264,-11.76786 -7.91253,-17.85714 -2.4699,-6.08929 -4.58515,-11.28551 -4.70055,-11.54716 -0.16441,-0.37274 0.12945,-0.42893 1.35748,-0.25955 0.86202,0.1189 25.59409,2.62567 54.96016,5.57059 64.1249,6.43066 81.55379,8.2033 81.64059,8.30342 0.10031,0.1157 -2.36236,40.38067 -2.47674,40.49504 -0.10494,0.10494 -31.6436,1.50434 -74.69956,3.31449 -13.94643,0.58634 -27.04464,1.14807 -29.10714,1.24829 -3.28815,0.15979 -3.87857,0.0977 -4.79385,-0.50388 z"
       id="path313"
       inkscape:connector-curvature="0"
       transform="scale(0.26458333)" />
    <path
       style="fill:#000000;stroke-width:0.25253814"
       d="m 319.27964,666.8709 c -0.0828,-0.13393 -0.54779,-2.22306 -1.03336,-4.64251 -0.48557,-2.41945 -1.61254,-7.6378 -2.50436,-11.59634 -0.89183,-3.95853 -2.21987,-10.37932 -2.9512,-14.2684 -0.73133,-3.88909 -2.27755,-11.32577 -3.43604,-16.52595 -1.15849,-5.20018 -2.06899,-9.49223 -2.02333,-9.53789 0.23326,-0.23326 118.70789,11.70086 120.745,12.16282 0.45275,0.10267 0.4982,0.29235 0.43865,1.83075 -0.16244,4.19658 -1.42809,25.88717 -2.15221,36.88458 -0.0316,0.47946 -0.21238,0.86845 -0.43301,0.93158 -1.13874,0.3258 -7.09314,0.64091 -33.71384,1.78414 -39.69881,1.70487 -66.94298,2.89781 -69.85421,3.0587 -1.79374,0.0991 -2.99001,0.0675 -3.08209,-0.0815 z"
       id="path400"
       inkscape:connector-curvature="0"
       transform="scale(0.26458333)" />
  </g>
  <g
     inkscape:groupmode="layer"
     id="layer3"
     inkscape:label="fly"
     style="display:inline">
    <path
       style="fill:none;stroke:#000000;stroke-width:0.26458332px;stroke-linecap:butt;stroke-linejoin:miter;stroke-opacity:1"
       d="m 78.710874,179.53504 c 43.698566,-0.93544 67.485556,-0.40091 67.485556,-0.40091 l -59.066565,22.98519 -18.174327,7.75081 z"
       id="path71"
       inkscape:connector-curvature="0"
       sodipodi:nodetypes="ccccc" />
    <path
       style="fill:#2b0000;stroke:#000000;stroke-width:0.26458332px;stroke-linecap:butt;stroke-linejoin:miter;stroke-opacity:1"
       d="M 74.434564,192.76489 C 125.48304,175.92691 114.79227,179.4014 114.79227,179.4014 Z"
       id="path73"
       inkscape:connector-curvature="0"
       sodipodi:nodetypes="ccc" />
    <path
       style="fill:#ff0000;stroke:#000000;stroke-width:0.26458332px;stroke-linecap:butt;stroke-linejoin:miter;stroke-opacity:1"
       d="M 75.236371,189.82492 C 109.44687,179.13414 109.44687,179.26777 109.44687,179.26777 Z"
       id="path81"
       inkscape:connector-curvature="0" />
    <path
       style="fill:#ffffff;stroke-width:0.50507629"
       d="m 262.16917,791.11443 c 0,-0.18551 1.8145,-5.94534 4.03223,-12.79963 54.86065,-48.03388 200.34608,-104.61422 276.35912,-100.56725 l 5.37731,0.31455 -109.67556,42.67132 c -92.53011,36.00056 -114.80784,44.86337 -142.50553,56.69337 -18.05648,7.71214 -33.00042,14.02271 -33.20877,14.0235 -0.20834,7.9e-4 -0.3788,-0.15035 -0.3788,-0.33586 z"
       id="path93"
       inkscape:connector-curvature="0"
       sodipodi:nodetypes="scccssss"
       transform="scale(0.26458333)" />
    <path
       style="fill:#ff0000;stroke:#000000;stroke-width:0.26458332px;stroke-linecap:butt;stroke-linejoin:miter;stroke-opacity:1"
       d="m 70.432453,205.92912 c 22.421232,-9.09207 44.805287,-18.27078 67.344987,-27.06226"
       id="path105"
       inkscape:connector-curvature="0" />
    <path
       style="fill:#ff0000;stroke-width:0.50507629"
       d="m 262.27772,790.64761 c 0.14744,-0.53001 1.03068,-3.39037 1.96274,-6.35637 1.33407,-4.24527 1.91194,-5.43944 2.71587,-5.61233 0.56167,-0.12078 18.74939,-7.43088 40.41716,-16.24466 86.3484,-35.12386 134.62009,-54.54992 182.82344,-73.57396 l 29.28025,-11.55581 9.10555,0.0619 c 5.00805,0.034 11.43098,0.20451 14.27317,0.37881 l 5.16762,0.31692 -22.34022,8.69097 c -215.72991,83.92494 -192.50792,74.73297 -239.27047,94.71051 -12.36174,5.28109 -22.90954,9.72476 -23.43955,9.87483 -0.75902,0.21491 -0.90672,0.0682 -0.69556,-0.6908 z"
       id="path138"
       inkscape:connector-curvature="0"
       transform="scale(0.26458333)" />
    <path
       style="fill:#ff0000;stroke-width:0.50507629"
       d="m 262.67424,790.58179 c 0,-1.00214 3.04156,-10.06041 3.6402,-10.8411 0.35912,-0.46835 6.90327,-3.34567 14.54255,-6.39406 7.63928,-3.04838 36.39075,-14.67138 63.89215,-25.82888 51.68927,-20.97067 104.485,-42.1732 148.74496,-59.73533 l 25.50635,-10.12079 12.57805,0.11888 c 6.91792,0.0654 12.99836,0.27436 13.51208,0.4644 0.63215,0.23384 -27.34868,11.35114 -86.57172,34.39652 -126.37531,49.17627 -129.48689,50.41689 -175.13649,69.82914 -19.75129,8.39913 -20.70813,8.77392 -20.70813,8.11122 z"
       id="path140"
       inkscape:connector-curvature="0"
       transform="scale(0.26458333)" />
    <path
       style="fill:#ff0000;stroke-width:0.50507629"
       d=""
       id="path142"
       inkscape:connector-curvature="0"
       transform="scale(0.26458333)" />
    <path
       style="fill:#280b0b;stroke-width:0.50507629"
       d="m 282.87729,726.91946 c 0,-0.15039 0.59198,-2.24596 1.31551,-4.65684 l 1.31551,-4.3834 61.94529,-19.10823 c 70.08822,-21.62008 66.92218,-20.61442 66.43428,-21.10231 -0.20031,-0.20031 4.04892,-0.34187 9.44271,-0.31457 l 9.8069,0.0496 -60.60916,20.15359 c -72.50174,24.10808 -89.65104,29.72475 -89.65104,29.36214 z"
       id="path146"
       inkscape:connector-curvature="0"
       transform="scale(0.26458333)" />
    <path
       style="fill:#ffffff;stroke-width:0.50507629"
       d="m 266.65658,776.95425 c 0.0202,-0.23806 3.48633,-11.10076 7.70241,-24.13933 l 7.66559,-23.70649 56.21326,-18.54072 56.21325,-18.54071 25.10403,0.46214 c 20.49269,0.37726 25.52151,0.33836 27.37686,-0.21173 2.05806,-0.6102 0.7932,-0.70652 -13.38452,-1.01927 -8.61155,-0.18996 -20.08941,-0.36356 -25.50635,-0.38577 l -9.84899,-0.0404 20.19829,-6.77904 20.19829,-6.77903 38.39056,0.0212 38.39056,0.0212 -7.82869,3.06836 c -39.91359,15.64367 -127.39629,50.81462 -210.86934,84.77648 -15.83414,6.44229 -29.07345,11.82862 -29.42069,11.96963 -0.34724,0.14102 -0.61478,0.0616 -0.59452,-0.17646 z"
       id="path221"
       inkscape:connector-curvature="0"
       transform="scale(0.26458333)" />
    <path
       style="fill:#ffffff;stroke-width:0.50507629"
       d="m 266.87047,776.21901 c 2.27261,-7.50434 15.06587,-46.75186 15.32047,-47.00053 0.18629,-0.18195 25.56727,-8.64105 56.40218,-18.79799 l 56.06347,-18.46716 24.4962,0.4873 c 23.10654,0.45964 27.47435,0.38237 28.01701,-0.49568 0.22889,-0.37035 -23.1145,-0.99808 -39.88631,-1.07258 l -9.09137,-0.0404 20.19829,-6.77904 20.19829,-6.77903 38.39056,0.0237 38.39056,0.0237 -10.35407,4.08281 c -51.81435,20.43138 -106.69038,42.48712 -196.72721,79.06846 -22.22335,9.0292 -40.71643,16.53878 -41.09573,16.68797 -0.52115,0.20498 -0.5999,-0.025 -0.32234,-0.94157 z"
       id="path223"
       inkscape:connector-curvature="0"
       transform="scale(0.26458333)" />
    <path
       style="fill:#ffffff;stroke-width:0.50507629"
       d="m 266.86158,776.21901 c 1.77024,-5.99052 15.05779,-46.74581 15.32295,-46.99824 0.27884,-0.26544 52.69112,-17.65477 103.14851,-34.22258 l 9.36427,-3.07478 24.17763,0.49702 c 23.05108,0.47386 28.6284,0.36593 27.70967,-0.53622 -0.22563,-0.22156 -11.20625,-0.56768 -24.40137,-0.76916 l -23.99112,-0.36632 20.19829,-6.73741 20.19829,-6.7374 38.39056,0.0254 38.39056,0.0255 -4.79823,1.91689 c -2.63902,1.05429 -15.59423,6.19264 -28.78935,11.41855 -36.27746,14.36767 -97.52758,39.00475 -158.84648,63.89398 -30.27933,12.29033 -55.36365,22.46564 -55.74295,22.61182 -0.519,0.20001 -0.60096,-0.0343 -0.33123,-0.94705 z"
       id="path225"
       inkscape:connector-curvature="0"
       transform="scale(0.26458333)" />
    <path
       style="fill:#ffffff;stroke-width:0.50507629"
       d="m 339.60327,689.80634 c -16.11193,-0.22793 -32.71652,-0.58403 -36.89909,-0.79131 l -7.60466,-0.37689 1.41924,-4.61523 1.41924,-4.61523 12.24634,-0.32714 c 22.12208,-0.59097 69.53991,-1.29799 84.47225,-1.25952 l 14.64721,0.0377 -2.77792,0.9394 c -3.01625,1.02 -36.2966,11.17655 -37.12311,11.32929 -0.27779,0.0513 -13.68756,-0.0932 -29.7995,-0.3211 z"
       id="path227"
       inkscape:connector-curvature="0"
       transform="scale(0.26458333)" />
    <path
       style="fill:#ffffff;stroke-width:0.50507629"
       d="m 266.61975,776.95368 c 0,-0.26807 12.51465,-39.19097 14.74203,-45.85048 l 0.6628,-1.98166 24.74874,-8.21333 c 13.6118,-4.51734 48.87183,-16.18305 78.35561,-25.92381 l 53.60688,-17.71048 38.31701,0.0237 38.317,0.0237 -8.08122,3.226 c -4.44467,1.77429 -29.44595,11.74408 -55.55839,22.15508 -42.24051,16.84124 -96.43178,38.7051 -162.79795,65.682 -12.03492,4.89202 -21.97861,8.89458 -22.09709,8.89458 -0.11848,0 -0.21542,-0.1464 -0.21542,-0.32534 z"
       id="path235"
       inkscape:connector-curvature="0"
       transform="scale(0.26458333)" />
    <path
       style="fill:#ffffff;stroke-width:0.50507629"
       d="m 286.31773,715.90926 c 0,-0.36111 11.55498,-36.21654 11.72669,-36.38825 0.0936,-0.0937 10.39183,-0.40761 22.88486,-0.6977 25.03657,-0.58134 89.17468,-1.1835 88.37452,-0.8297 -0.27779,0.12284 -11.41472,3.55663 -24.74874,7.63066 -22.49392,6.87271 -91.22216,28.16663 -96.09076,29.77158 -1.18061,0.3892 -2.14657,0.62023 -2.14657,0.51341 z"
       id="path237"
       inkscape:connector-curvature="0"
       transform="scale(0.26458333)" />
    <path
       style="fill:#ffffff;stroke-width:0.50507629"
       d="m 263.29323,661.74283 c 0.61811,-14.53739 1.29064,-38.65603 1.30626,-46.84583 0.008,-4.44467 0.18667,-8.35051 0.39597,-8.67965 0.29037,-0.45663 2.59244,-0.3688 9.71498,0.37067 5.13395,0.53301 41.15425,4.15591 80.04512,8.0509 38.89088,3.89498 71.50953,7.20521 72.48591,7.35606 l 1.77523,0.27427 -1.19172,20.05246 c -0.65544,11.02886 -1.2591,20.12244 -1.34147,20.20795 -0.16541,0.17176 -14.49731,0.82572 -68.44495,3.12312 -19.86213,0.84584 -49.0363,2.102 -64.8315,2.79145 -15.7952,0.68945 -29.06358,1.25355 -29.4853,1.25355 -0.66748,0 -0.72296,-1.02992 -0.42853,-7.95495 z"
       id="path239"
       inkscape:connector-curvature="0"
       transform="scale(0.26458333)" />
    <path
       sodipodi:type="star"
       style="fill:#2b0000;stroke-width:0.26458332"
       id="path280"
       sodipodi:sides="5"
       sodipodi:cx="83.45491"
       sodipodi:cy="197.97664"
       sodipodi:r1="4.9327345"
       sodipodi:r2="2.466367"
       sodipodi:arg1="0.43335385"
       sodipodi:arg2="1.0616724"
       inkscape:flatsided="false"
       inkscape:rounded="0"
       inkscape:randomized="0"
       d="m 87.931675,200.04798 -3.274627,0.0822 -1.788702,2.74417 -1.090114,-3.08894 -3.162603,-0.85316 2.600899,-1.9913 -0.165894,-3.27146 2.697558,1.85826 3.060075,-1.16871 -0.933716,3.13976 z"
       inkscape:transform-center-x="0.18125928"
       inkscape:transform-center-y="0.29530276" />
    <path
       style="fill:#2b0000;stroke:#000000;stroke-width:0.26458332px;stroke-linecap:butt;stroke-linejoin:miter;stroke-opacity:1"
       d="m 80.982666,161.19367 c 0.903478,3.83028 0.86134,3.45445 1.68665,7.7418 0.03129,1.1723 1.44234,6.02763 1.490857,7.19809 0.03163,0.15964 0.07283,0.31787 0.132342,0.46955"
       id="path333"
       inkscape:connector-curvature="0"
       sodipodi:nodetypes="cccc" />
    <path
       style="fill:#2b0000;stroke-width:0.35714287"
       d="m 318.95667,666.43853 c -0.091,-0.45463 -0.43239,-2.27304 -0.75852,-4.0409 -0.32613,-1.76785 -1.38564,-6.55864 -2.35446,-10.6462 -0.96882,-4.08755 -2.16192,-9.75849 -2.65134,-12.60207 -1.08459,-6.3016 -2.91848,-15.11899 -4.78402,-23.00173 -0.76703,-3.24107 -1.33884,-5.94862 -1.27069,-6.01678 0.21323,-0.21325 121.30699,12.03104 121.56821,12.29227 0.17295,0.17294 -2.05442,37.77994 -2.31679,39.11677 -0.21953,1.11858 6.25564,0.72321 -54.75187,3.34311 -24.8703,1.06803 -46.86038,2.04093 -48.86685,2.16201 -3.60621,0.21761 -3.65003,0.21064 -3.81367,-0.60648 z"
       id="path359"
       inkscape:connector-curvature="0"
       transform="scale(0.26458333)" />
    <path
       style="fill:#000000;stroke-width:0.25253814"
       d="m 282.99319,726.81249 c 0,-0.33175 2.57113,-8.64215 2.71341,-8.77025 0.10493,-0.0945 19.45313,-6.10842 42.99599,-13.36431 23.54287,-7.25591 42.98703,-13.28805 43.20925,-13.40476 0.22222,-0.11672 1.30182,-0.45092 2.39911,-0.74267 2.55099,-0.67827 29.07545,-8.89701 35.12281,-10.88298 2.52501,-0.82922 4.63578,-1.64225 4.69061,-1.80673 0.0738,-0.22152 2.48477,-0.31551 9.29868,-0.36251 l 9.19899,-0.0635 -19.82425,6.5881 c -10.90333,3.62345 -19.88106,6.66575 -19.95051,6.76067 -0.0695,0.0949 -0.86494,0.37941 -1.76777,0.63219 -0.90282,0.25279 -13.91485,4.53095 -28.91561,9.50703 -61.08862,20.26442 -79.17071,26.18203 -79.17071,25.90968 z"
       id="path398"
       inkscape:connector-curvature="0"
       transform="scale(0.26458333)" />
    <path
       style="fill:#000000;stroke-width:0.25253814"
       d="m 319.27964,666.8709 c -0.0828,-0.13393 -0.54779,-2.22306 -1.03336,-4.64251 -0.48557,-2.41945 -1.61254,-7.6378 -2.50436,-11.59634 -0.89183,-3.95853 -2.21987,-10.37932 -2.9512,-14.2684 -0.73133,-3.88909 -2.27755,-11.32577 -3.43604,-16.52595 -1.15849,-5.20018 -2.06899,-9.49223 -2.02333,-9.53789 0.23326,-0.23326 118.70789,11.70086 120.745,12.16282 0.45275,0.10267 0.4982,0.29235 0.43865,1.83075 -0.16244,4.19658 -1.42809,25.88717 -2.15221,36.88458 -0.0316,0.47946 -0.21238,0.86845 -0.43301,0.93158 -1.13874,0.3258 -7.09314,0.64091 -33.71384,1.78414 -39.69881,1.70487 -66.94298,2.89781 -69.85421,3.0587 -1.79374,0.0991 -2.99001,0.0675 -3.08209,-0.0815 z"
       id="path402"
       inkscape:connector-curvature="0"
       transform="scale(0.26458333)" />
    <path
       style="fill:#000000;stroke-width:0.35714287"
       d="m 312.4114,764.22711 c -0.34665,-1.03125 -1.21975,-3.55139 -1.94023,-5.6003 l -1.30995,-3.72529 -5.42182,-1.45328 c -2.98199,-0.7993 -5.52223,-1.55601 -5.64497,-1.68158 -0.15646,-0.16007 7.49639,-6.33422 9.00549,-7.26544 0.0449,-0.0277 -0.0768,-2.67769 -0.27033,-5.88891 -0.19355,-3.21122 -0.28098,-5.9095 -0.19431,-5.99618 0.0867,-0.0867 2.25343,1.30507 4.81499,3.09276 2.56157,1.7877 4.89285,3.25036 5.18063,3.25036 0.28778,0 2.82142,-0.88393 5.63032,-1.96429 2.80889,-1.08035 5.20812,-1.96428 5.33162,-1.96428 0.12349,0 -0.55595,2.58648 -1.50987,5.74773 l -1.7344,5.74774 2.22775,2.67852 c 1.22527,1.47319 2.99516,3.62778 3.9331,4.78798 l 1.70535,2.10946 -4.91963,0.004 c -7.76428,0.006 -7.02538,-0.35514 -10.66815,5.21695 -1.7184,2.62851 -3.22808,4.77912 -3.35484,4.77912 -0.12677,0 -0.51411,-0.84375 -0.86075,-1.875 z"
       id="path404"
       inkscape:connector-curvature="0"
       transform="scale(0.26458333)" />
  </g>
</svg>
