<?xml version="1.0" encoding="UTF-8" standalone="no"?>
<!-- Created with Inkscape (http://www.inkscape.org/) -->

<svg
   xmlns:dc="http://purl.org/dc/elements/1.1/"
   xmlns:cc="http://creativecommons.org/ns#"
   xmlns:rdf="http://www.w3.org/1999/02/22-rdf-syntax-ns#"
   xmlns:svg="http://www.w3.org/2000/svg"
   xmlns="http://www.w3.org/2000/svg"
   xmlns:sodipodi="http://sodipodi.sourceforge.net/DTD/sodipodi-0.dtd"
   xmlns:inkscape="http://www.inkscape.org/namespaces/inkscape"
   width="210mm"
   height="297mm"
   viewBox="0 0 210 297"
   version="1.1"
   id="svg8"
   inkscape:version="0.92.2 (5c3e80d, 2017-08-06)"
   sodipodi:docname="level.svg">
  <defs
     id="defs2" />
  <sodipodi:namedview
     id="base"
     pagecolor="#ffffff"
     bordercolor="#666666"
     borderopacity="1.0"
     inkscape:pageopacity="0.0"
     inkscape:pageshadow="2"
     inkscape:zoom="2"
     inkscape:cx="352.39873"
     inkscape:cy="534.15609"
     inkscape:document-units="mm"
     inkscape:current-layer="layer3"
     showgrid="false"
     inkscape:window-width="1920"
     inkscape:window-height="1001"
     inkscape:window-x="-9"
     inkscape:window-y="-9"
     inkscape:window-maximized="1" />
  <metadata
     id="metadata5">
    <rdf:RDF>
      <cc:Work
         rdf:about="">
        <dc:format>image/svg+xml</dc:format>
        <dc:type
           rdf:resource="http://purl.org/dc/dcmitype/StillImage" />
        <dc:title />
      </cc:Work>
    </rdf:RDF>
  </metadata>
  <g
     inkscape:groupmode="layer"
     id="layer2"
     inkscape:label="ear"
     style="display:inline">
    <path
       style="fill:none;stroke:#800000;stroke-width:2.01206803;stroke-linecap:butt;stroke-linejoin:miter;stroke-miterlimit:4;stroke-dasharray:none;stroke-opacity:0.96078431"
       d="m 76.834096,142.57197 0.126753,-15.59054 10.900698,10.26694 z"
       id="path824"
       inkscape:connector-curvature="0"
       inkscape:export-xdpi="86.689697"
       inkscape:export-ydpi="86.689697" />
    <path
       style="fill:none;stroke:#800000;stroke-width:2.01206803;stroke-linecap:butt;stroke-linejoin:miter;stroke-miterlimit:4;stroke-dasharray:none;stroke-opacity:0.96078431"
       d="m 114.71286,142.15426 -0.12611,-15.58045 -10.84508,10.26029 z"
       id="path824-6"
       inkscape:connector-curvature="0"
       inkscape:export-xdpi="86.689697"
       inkscape:export-ydpi="86.689697" />
    <path
       style="opacity:0.98000004;fill:#ffffff;fill-opacity:1;stroke:none;stroke-width:5.6692915;stroke-miterlimit:4;stroke-dasharray:none;stroke-opacity:0.96078431"
       d="m 426.74873,529.59673 c -1.1,-0.56247 -4.59253,-2.45307 -7.76117,-4.20135 -3.16864,-1.74827 -8.67852,-4.43676 -12.24419,-5.97442 -3.56566,-1.53766 -6.66746,-2.98018 -6.89287,-3.20559 -0.22542,-0.22542 6.18447,-6.64554 14.24419,-14.26694 l 14.65404,-13.8571 0.30583,8.16113 c 0.45452,12.12899 0.49934,34.41439 0.0692,34.38904 -0.20625,-0.0121 -1.275,-0.4823 -2.375,-1.04477 z"
       id="path868"
       inkscape:connector-curvature="0"
       transform="scale(0.26458333)"
       inkscape:export-xdpi="86.689697"
       inkscape:export-ydpi="86.689697" />
    <path
       style="opacity:0.98000004;fill:#ffffff;fill-opacity:1;stroke:none;stroke-width:5.6692915;stroke-miterlimit:4;stroke-dasharray:none;stroke-opacity:0.96078431"
       d="m 294.56234,516.2886 c 0.035,-8.73125 0.20373,-18.30801 0.375,-21.28168 l 0.31139,-5.40667 14.58404,13.65667 c 8.02122,7.51117 14.60247,13.78988 14.625,13.95268 0.0225,0.16281 -1.59029,0.92825 -3.58404,1.70099 -4.53379,1.75721 -10.39509,4.66401 -14.625,7.25301 -3.12606,1.91336 -10.95123,6 -11.4889,6 -0.14361,0 -0.23248,-7.14375 -0.19749,-15.875 z"
       id="path870"
       inkscape:connector-curvature="0"
       transform="scale(0.26458333)"
       inkscape:export-xdpi="86.689697"
       inkscape:export-ydpi="86.689697" />
    <path
       style="opacity:0.98000004;fill:#d40000;fill-opacity:1;stroke:none;stroke-width:5.6692915;stroke-miterlimit:4;stroke-dasharray:none;stroke-opacity:0.96078431"
       d="m 294.55469,515.5386 c 0.0308,-9.14375 0.19954,-18.7384 0.375,-21.32144 l 0.31904,-4.69643 14.5,13.66501 c 7.975,7.51576 14.56235,13.80997 14.63856,13.98712 0.0762,0.17716 -1.49879,0.95674 -3.5,1.73241 -4.54649,1.76221 -10.40474,4.66694 -14.63856,7.25833 -3.12606,1.91335 -10.95123,6 -11.4889,6 -0.14361,0 -0.23592,-7.48125 -0.20514,-16.625 z"
       id="path845"
       inkscape:connector-curvature="0"
       transform="scale(0.26458333)"
       inkscape:export-xdpi="86.689697"
       inkscape:export-ydpi="86.689697" />
    <path
       style="opacity:0.98000004;fill:#d40000;fill-opacity:1;stroke:none;stroke-width:5.6692915;stroke-miterlimit:4;stroke-dasharray:none;stroke-opacity:0.96078431"
       d="m 426.74873,529.59673 c -1.1,-0.56247 -4.59252,-2.45307 -7.76116,-4.20135 -3.16864,-1.74827 -8.67853,-4.43676 -12.2442,-5.97442 -3.56566,-1.53766 -6.67,-2.98273 -6.89853,-3.21126 -0.22854,-0.22853 6.18135,-6.66689 14.24419,-14.30748 l 14.6597,-13.89196 0.31217,7.20167 c 0.45588,10.51713 0.50011,35.45534 0.0628,35.42957 -0.20625,-0.0122 -1.275,-0.4823 -2.375,-1.04477 z"
       id="path847"
       inkscape:connector-curvature="0"
       transform="scale(0.26458333)"
       inkscape:export-xdpi="86.689697"
       inkscape:export-ydpi="86.689697" />
  </g>
  <g
     inkscape:label="Layer 1"
     inkscape:groupmode="layer"
     id="layer1"
     style="display:inline">
    <ellipse
       style="opacity:0.98000004;fill:none;fill-opacity:1;stroke:#800000;stroke-width:2.01206803;stroke-miterlimit:4;stroke-dasharray:none;stroke-opacity:0.98039216"
       id="path817"
       cx="96.100449"
       cy="156.38797"
       rx="24.589947"
       ry="20.153616"
       inkscape:export-xdpi="86.689697"
       inkscape:export-ydpi="86.689697" />
    <path
       style="opacity:0.98000004;fill:#ffffff;fill-opacity:1;stroke:none;stroke-width:5.6692915;stroke-miterlimit:4;stroke-dasharray:none;stroke-opacity:0.96078431"
       d="m 351.74873,662.61465 c -31.51196,-3.27669 -59.49499,-21.02154 -71.16935,-45.13054 -8.26628,-17.0709 -8.1963,-36.63409 0.19083,-53.35095 4.57027,-9.10927 14.4775,-20.67036 22.50565,-26.26263 1.93992,-1.35131 9.02742,-5.10219 15.75,-8.33528 13.46411,-6.47529 18.70245,-8.16653 29.8008,-9.6214 6.62918,-0.86901 21.01767,-0.9889 27.18518,-0.22652 12.23966,1.51296 19.38343,3.67203 31.73689,9.59188 10.43852,5.00219 14.48867,7.51503 20.48582,12.71004 28.93232,25.06251 31.74869,63.92097 6.64434,91.67435 -18.99797,21.00265 -51.31905,32.25885 -83.13016,28.95105 z"
       id="path866"
       inkscape:connector-curvature="0"
       transform="scale(0.26458333)"
       inkscape:export-xdpi="86.689697"
       inkscape:export-ydpi="86.689697" />
  </g>
  <g
     inkscape:groupmode="layer"
     id="layer3"
     inkscape:label="num"
     style="display:inline">
    <text
       xml:space="preserve"
       style="font-style:normal;font-weight:normal;font-size:22.57777786px;line-height:1.25;font-family:sans-serif;letter-spacing:0px;word-spacing:0px;fill:#000000;fill-opacity:1;stroke:none;stroke-width:0.26458332"
       x="89.164581"
       y="165.10519"
       id="text856"
       inkscape:export-xdpi="86.689697"
       inkscape:export-ydpi="86.689697"><tspan
         sodipodi:role="line"
         id="tspan854"
         x="89.164581"
         y="165.10519"
         style="stroke-width:0.26458332">2</tspan></text>
  </g>
</svg>
