<?xml version="1.0" encoding="UTF-8" standalone="no"?>
<!-- Created with Inkscape (http://www.inkscape.org/) -->

<svg
   xmlns:dc="http://purl.org/dc/elements/1.1/"
   xmlns:cc="http://creativecommons.org/ns#"
   xmlns:rdf="http://www.w3.org/1999/02/22-rdf-syntax-ns#"
   xmlns:svg="http://www.w3.org/2000/svg"
   xmlns="http://www.w3.org/2000/svg"
   xmlns:sodipodi="http://sodipodi.sourceforge.net/DTD/sodipodi-0.dtd"
   xmlns:inkscape="http://www.inkscape.org/namespaces/inkscape"
   width="210mm"
   height="297mm"
   viewBox="0 0 210 297"
   version="1.1"
   id="svg8"
   inkscape:version="0.92.2 (5c3e80d, 2017-08-06)"
   sodipodi:docname="tutor_select.svg">
  <defs
     id="defs2" />
  <sodipodi:namedview
     id="base"
     pagecolor="#ffffff"
     bordercolor="#666666"
     borderopacity="1.0"
     inkscape:pageopacity="0.0"
     inkscape:pageshadow="2"
     inkscape:zoom="1.979899"
     inkscape:cx="262.4032"
     inkscape:cy="655.3325"
     inkscape:document-units="mm"
     inkscape:current-layer="layer1"
     showgrid="false"
     inkscape:window-width="1920"
     inkscape:window-height="1001"
     inkscape:window-x="-9"
     inkscape:window-y="-9"
     inkscape:window-maximized="1" />
  <metadata
     id="metadata5">
    <rdf:RDF>
      <cc:Work
         rdf:about="">
        <dc:format>image/svg+xml</dc:format>
        <dc:type
           rdf:resource="http://purl.org/dc/dcmitype/StillImage" />
        <dc:title />
      </cc:Work>
    </rdf:RDF>
  </metadata>
  <g
     inkscape:label="Layer 1"
     inkscape:groupmode="layer"
     id="layer1">
    <path
       style="fill:none;stroke:#000000;stroke-width:0.15506496px;stroke-linecap:butt;stroke-linejoin:miter;stroke-opacity:1"
       d="m 101.07208,108.10078 c -28.123572,50.52419 -28.70573,52.88446 -28.70573,52.88446 l 18.946857,9.40158 28.498583,-52.96222 z"
       id="path815"
       inkscape:connector-curvature="0"
       sodipodi:nodetypes="ccccc"
       inkscape:export-xdpi="86.689697"
       inkscape:export-ydpi="86.689697" />
    <path
       style="fill:#784421;stroke:#000000;stroke-width:0.26458332px;stroke-linecap:butt;stroke-linejoin:miter;stroke-opacity:1"
       d="m 105.30419,110.1786 c 1.60362,-3.34087 1.60362,-3.34087 1.60362,-3.34087 l 9.88897,4.94449 -1.60361,3.4745 z"
       id="path821"
       inkscape:connector-curvature="0"
       inkscape:export-xdpi="86.689697"
       inkscape:export-ydpi="86.689697" />
    <path
       style="fill:none;stroke:#000000;stroke-width:0.26458332px;stroke-linecap:butt;stroke-linejoin:miter;stroke-opacity:1"
       d="m 75.504213,166.63816 c 1.60362,-3.34087 1.60362,-3.34087 1.60362,-3.34087 l 9.88897,4.94449 -1.60361,3.4745 z"
       id="path821-2"
       inkscape:connector-curvature="0"
       inkscape:export-xdpi="86.689697"
       inkscape:export-ydpi="86.689697" />
    <path
       style="fill:none;stroke:#000000;stroke-width:0.26458332px;stroke-linecap:butt;stroke-linejoin:miter;stroke-opacity:1"
       d="m 96.751567,115.52399 18.976133,9.08716 z"
       id="path838"
       inkscape:connector-curvature="0"
       inkscape:export-xdpi="86.689697"
       inkscape:export-ydpi="86.689697" />
    <path
       style="fill:#008000;stroke:#000000;stroke-width:0.26458332px;stroke-linecap:butt;stroke-linejoin:miter;stroke-opacity:1"
       d="m 76.439084,153.47626 18.575232,10.02261 z"
       id="path840"
       inkscape:connector-curvature="0"
       inkscape:export-xdpi="86.689697"
       inkscape:export-ydpi="86.689697" />
    <path
       style="opacity:0.98000004;fill:#008000;fill-opacity:1;stroke:none;stroke-width:8.09898758;stroke-miterlimit:4;stroke-dasharray:none;stroke-opacity:1"
       d="m 403.0649,453.61318 c -18.85715,-9.04368 -34.55362,-16.70761 -34.88105,-17.03096 -0.32743,-0.32335 2.70111,-6.56738 6.73009,-13.87562 l 7.32541,-13.28772 26.84135,13.49027 c 14.76273,7.41965 30.44887,15.20988 34.85809,17.31162 l 8.01675,3.82135 -6.94532,13.02446 c -3.81993,7.16345 -7.10604,13.01663 -7.30247,13.00706 -0.19643,-0.01 -15.78571,-7.41677 -34.64285,-16.46046 z"
       id="path842"
       inkscape:connector-curvature="0"
       transform="scale(0.26458333)"
       inkscape:export-xdpi="86.689697"
       inkscape:export-ydpi="86.689697" />
    <path
       style="opacity:0.98000004;fill:#008000;fill-opacity:1;stroke:none;stroke-width:8.09898758;stroke-miterlimit:4;stroke-dasharray:none;stroke-opacity:1"
       d="m 309.68838,625.5734 c -19.14279,-9.48506 -34.81244,-17.61973 -34.82143,-18.07703 -0.0197,-1.00209 11.97344,-24.52886 13.1118,-25.72124 0.60562,-0.63436 9.14506,3.6686 35.08615,17.67962 18.85714,10.18492 34.3774,18.79265 34.48947,19.12828 0.19929,0.59683 -11.55182,22.84626 -12.55352,23.76871 -0.27906,0.25698 -16.16967,-7.29327 -35.31247,-16.77834 z"
       id="path844"
       inkscape:connector-curvature="0"
       transform="scale(0.26458333)"
       inkscape:export-xdpi="86.689697"
       inkscape:export-ydpi="86.689697" />
    <path
       style="opacity:0.98000004;fill:#784421;fill-opacity:1;stroke:none;stroke-width:8.09898758;stroke-miterlimit:4;stroke-dasharray:none;stroke-opacity:1"
       d="m 304.666,638.79924 c -9.70371,-4.97356 -17.64973,-9.33863 -17.65782,-9.70015 -0.0272,-1.214 4.47543,-10.41411 5.09674,-10.41411 0.50188,0 34.81322,16.91616 35.43268,17.46899 0.10284,0.0918 -1.0315,2.75916 -2.52076,5.92749 l -2.70774,5.76061 z"
       id="path846"
       inkscape:connector-curvature="0"
       transform="scale(0.26458333)"
       inkscape:export-xdpi="86.689697"
       inkscape:export-ydpi="86.689697" />
    <path
       style="opacity:0.98000004;fill:#ffffff;fill-opacity:1;stroke:none;stroke-width:22.90739632;stroke-miterlimit:4;stroke-dasharray:none;stroke-opacity:1"
       d="m 326.2288,598.53829 c -17.71003,-9.53225 -32.99513,-18.06289 -33.9669,-18.95698 -1.62009,-1.4906 17.95434,-38.91274 58.71263,-112.24604 l 15.83637,-28.49318 33.81453,16.17703 c 18.59799,8.89737 33.81453,17.10072 33.81453,18.22967 0,1.75139 -54.66608,104.74468 -70.6501,133.10788 l -5.36101,9.51297 z m 52.65277,-57.25297 c 0,-2.18711 -2.98937,-3.31158 -10.74191,-4.04061 l -10.7419,-1.01016 7.44449,-7.07106 c 8.79933,-8.35794 12.77578,-16.57714 11.42886,-23.6231 -2.11555,-11.0668 -26.80578,-13.56471 -28.36032,-2.86922 -0.5963,4.10259 -0.21479,4.342 3.63544,2.28142 2.36591,-1.2662 6.75682,-2.01884 9.75758,-1.67255 4.2996,0.49619 5.59465,1.84062 6.11044,6.34347 0.53365,4.65864 -1.42512,7.79347 -10.6066,16.97495 -6.19361,6.19362 -11.26112,12.97782 -11.26112,15.076 0,3.47878 1.46845,3.76318 16.66752,3.2281 13.20791,-0.46499 16.66752,-1.21581 16.66752,-3.61724 z"
       id="path1428"
       inkscape:connector-curvature="0"
       transform="scale(0.26458333)"
       inkscape:export-xdpi="86.689697"
       inkscape:export-ydpi="86.689697" />
    <path
       style="opacity:0.98000004;fill:#ffffff;fill-opacity:1;stroke:none;stroke-width:5.72684908;stroke-miterlimit:4;stroke-dasharray:none;stroke-opacity:1"
       d="m 323.79802,598.09637 -34.92323,-18.80677 4.04034,-7.53863 c 13.50105,-25.19084 38.29214,-70.5034 61.13929,-111.74891 10.84223,-19.57328 12.23459,-21.85437 13.19242,-21.61305 0.93978,0.23678 40.85233,19.22559 62.32084,29.64979 l 7.71191,3.74458 -38.8739,72.17419 c -21.38064,39.6958 -39.05627,72.34774 -39.27917,72.55987 -0.2229,0.21213 -16.12073,-8.07735 -35.3285,-18.42107 z m 55.37881,-44.2381 v -3.53553 h -6.31345 -6.31345 V 522.52047 494.7182 l -3.33183,0.14934 -3.33182,0.14935 -0.68763,2.0203 c -1.29797,3.81352 -4.02818,5.36894 -10.7052,6.09885 l -3.15673,0.34508 v 2.96522 2.96522 h 6.31346 6.31345 v 20.45559 20.45559 h -6.31345 -6.31346 v 3.53553 3.53554 h 16.92006 16.92005 z"
       id="path853"
       inkscape:connector-curvature="0"
       transform="scale(0.26458333)"
       inkscape:export-xdpi="86.689697"
       inkscape:export-ydpi="86.689697" />
    <path
       style="opacity:0.98000004;fill:#ffffff;fill-opacity:1;stroke:none;stroke-width:5.72684908;stroke-miterlimit:4;stroke-dasharray:none;stroke-opacity:1"
       d="m 344.57911,609.31977 c -7.77818,-4.19379 -23.50033,-12.66658 -34.93812,-18.82843 l -20.79598,-11.20335 4.31886,-8.04291 c 14.83157,-27.62041 37.41429,-68.90188 59.61249,-108.97227 12.16468,-21.95872 13.48364,-24.13251 14.48934,-23.8801 0.9973,0.25031 60.06499,28.36312 67.09975,31.93561 l 2.91322,1.47943 -38.5211,71.50102 c -21.1866,39.32556 -38.86202,71.9814 -39.27871,72.56854 -0.74792,1.05387 -0.93855,0.96997 -14.89975,-6.55754 z m 34.59772,-55.4615 v -3.53553 h -6.31345 -6.31345 V 522.52047 494.7182 l -3.33183,0.14934 -3.33182,0.14935 -0.68763,2.0203 c -1.29797,3.81352 -4.02818,5.36894 -10.7052,6.09885 l -3.15673,0.34508 v 2.96522 2.96522 h 6.31346 6.31345 v 20.45559 20.45559 h -6.31345 -6.31346 v 3.53553 3.53554 h 16.92006 16.92005 z"
       id="path855"
       inkscape:connector-curvature="0"
       transform="scale(0.26458333)"
       inkscape:export-xdpi="86.689697"
       inkscape:export-ydpi="86.689697" />
    <path
       style="opacity:0.98000004;fill:#ffffff;fill-opacity:1;stroke:none;stroke-width:5.72684908;stroke-miterlimit:4;stroke-dasharray:none;stroke-opacity:1"
       d="m 325.87782,599.24077 c -18.04907,-9.71973 -33.77732,-18.16955 -34.95167,-18.77739 l -2.13519,-1.10515 4.33234,-8.07803 c 14.06768,-26.23038 45.10476,-82.93249 63.99969,-116.92195 4.86442,-8.75045 9.14593,-15.97226 9.51447,-16.04847 0.6816,-0.14094 69.57796,32.5126 70.45999,33.39463 0.0898,0.0898 -15.31344,28.89582 -34.22949,64.0133 -18.91606,35.11748 -36.44218,67.65913 -38.94694,72.31478 -2.50475,4.65564 -4.70544,8.55834 -4.89041,8.67266 -0.18496,0.11431 -15.10372,-7.74466 -33.15279,-17.46438 z m 53.29901,-45.3825 v -3.53553 h -6.31345 -6.31345 V 522.52047 494.7182 l -3.33183,0.14934 -3.33182,0.14935 -0.68763,2.0203 c -1.29797,3.81352 -4.02818,5.36894 -10.7052,6.09885 l -3.15673,0.34508 v 2.96522 2.96522 h 6.31346 6.31345 v 20.45559 20.45559 h -6.31345 -6.31346 v 3.53553 3.53554 h 16.92006 16.92005 z"
       id="path857"
       inkscape:connector-curvature="0"
       transform="scale(0.26458333)"
       inkscape:export-filename="C:\Users\vsgin\path857.png"
       inkscape:export-xdpi="86.689697"
       inkscape:export-ydpi="86.689697" />
    <path
       style="opacity:0.98000004;fill:#ffffff;fill-opacity:1;stroke:none;stroke-width:5.72684908;stroke-miterlimit:4;stroke-dasharray:none;stroke-opacity:1"
       d="m 323.77752,598.15161 -34.94373,-18.78698 3.08115,-5.80838 c 10.24617,-19.3154 43.8938,-80.83602 62.43084,-114.14724 4.86945,-8.75045 9.52057,-17.12106 10.33581,-18.60137 1.22819,-2.23013 1.66842,-2.64475 2.56827,-2.4189 1.03035,0.2586 59.38222,28.01222 66.60895,31.68089 l 3.41673,1.73451 -18.74726,34.83989 c -10.311,19.16193 -27.73434,51.54527 -38.71856,71.96298 -10.98421,20.41771 -20.22266,37.39501 -20.52989,37.72734 -0.42533,0.4601 -8.89472,-3.87756 -35.50231,-18.18274 z"
       id="path859"
       inkscape:connector-curvature="0"
       transform="scale(0.26458333)"
       inkscape:export-xdpi="86.689697"
       inkscape:export-ydpi="86.689697" />
  </g>
  <g
     inkscape:groupmode="layer"
     id="layer2"
     inkscape:label="num"
     style="display:inline">
    <text
       xml:space="preserve"
       style="font-style:normal;font-weight:normal;font-size:22.57777786px;line-height:1.25;font-family:sans-serif;letter-spacing:0px;word-spacing:0px;fill:#000000;fill-opacity:1;stroke:none;stroke-width:0.26458332"
       x="88.331779"
       y="147.39415"
       id="text1426"
       inkscape:export-xdpi="86.689697"
       inkscape:export-ydpi="86.689697"><tspan
         sodipodi:role="line"
         id="tspan1424"
         x="88.331779"
         y="147.39415"
         style="font-size:22.57777786px;stroke-width:0.26458332">1</tspan></text>
  </g>
</svg>
